<?xml version="1.0" standalone="no"?>
<!DOCTYPE svg PUBLIC "-//W3C//DTD SVG 20010904//EN"
 "http://www.w3.org/TR/2001/REC-SVG-20010904/DTD/svg10.dtd">
<svg version="1.0" xmlns="http://www.w3.org/2000/svg"
 width="833.000000pt" height="833.000000pt" viewBox="0 0 833.000000 833.000000"
 preserveAspectRatio="xMidYMid meet">

<g transform="translate(0.000000,833.000000) scale(0.100000,-0.100000)"
fill="#000000" stroke="none">
<path d="M0 4165 l0 -4165 4165 0 4165 0 0 4165 0 4165 -4165 0 -4165 0 0
-4165z m3997 3830 c217 -162 668 -694 781 -921 61 -122 165 -455 282 -901 131
-505 197 -675 278 -717 27 -14 180 -47 302 -65 248 -38 609 -66 1048 -83 183
-6 338 -15 344 -19 17 -11 -22 -65 -134 -189 -137 -152 -347 -352 -431 -411
-237 -167 -819 -383 -1158 -430 -115 -16 -139 -9 -139 35 0 41 55 200 82 238
30 43 90 72 258 128 182 59 421 174 530 255 52 38 68 55 54 55 -22 0 -203 -52
-419 -120 -267 -84 -624 -162 -887 -195 -402 -50 -1072 -35 -1618 36 -300 39
-495 77 -796 154 -192 49 -274 63 -274 47 0 -22 78 -73 177 -117 220 -96 480
-169 653 -185 118 -10 140 -21 174 -88 22 -44 66 -176 66 -200 0 -28 -274 -21
-488 13 -171 28 -427 123 -727 271 -222 109 -317 174 -402 275 -141 168 -263
348 -263 387 0 13 9 22 28 26 15 3 167 11 337 16 391 12 604 25 825 52 232 27
369 22 535 -21 188 -49 332 -64 525 -57 170 6 253 18 381 57 64 20 71 23 48
30 -15 3 -82 10 -150 13 -412 23 -543 51 -629 135 -54 52 -70 94 -70 187 0 79
20 143 66 213 46 70 268 291 353 351 166 118 187 135 166 138 -11 1 -78 -18
-149 -43 -71 -25 -149 -46 -175 -48 l-46 -2 -3 43 c-6 89 50 198 226 437 57
77 113 155 125 174 l21 34 -74 -40 c-41 -22 -104 -56 -140 -76 -89 -50 -107
-49 -115 6 -3 23 1 105 9 182 8 77 14 141 12 142 -1 1 -28 -32 -61 -73 -82
-105 -176 -191 -222 -203 -21 -5 -69 -14 -106 -19 -131 -20 -282 -113 -328
-204 -24 -48 -25 -163 -3 -279 34 -172 19 -280 -40 -295 -80 -20 -217 140
-263 307 -15 55 -18 108 -18 359 0 255 3 304 18 360 20 69 112 254 174 347 64
97 101 115 418 203 197 55 407 130 635 228 320 136 308 134 397 67z m2230
-614 c141 -71 312 -211 596 -491 445 -436 673 -739 877 -1163 200 -415 327
-857 377 -1307 23 -208 26 -836 5 -1025 -45 -402 -133 -702 -321 -1090 -272
-562 -642 -1019 -1158 -1432 -863 -690 -1827 -953 -2923 -797 -446 63 -918
212 -1375 433 -604 293 -1070 645 -1348 1019 -662 892 -942 2321 -671 3424
171 698 526 1295 1139 1914 160 162 224 214 262 214 18 0 23 -5 23 -25 0 -43
-32 -96 -390 -640 -419 -638 -559 -899 -686 -1280 -120 -362 -164 -686 -164
-1194 1 -716 78 -1152 271 -1531 134 -264 225 -360 338 -360 64 0 195 48 391
144 l175 86 -115 -8 c-176 -11 -387 -9 -401 5 -18 18 -1 49 64 116 138 139
382 315 552 397 184 89 297 110 590 110 211 0 325 -13 437 -51 144 -47 424
-188 642 -322 107 -66 103 -45 -11 75 -185 192 -499 440 -1038 819 -278 195
-568 449 -634 553 -38 61 -39 72 -3 80 15 4 261 11 547 16 286 5 561 14 610
20 180 20 319 24 331 9 6 -8 27 -67 48 -132 44 -140 136 -326 207 -420 67 -89
188 -211 275 -276 80 -61 225 -134 303 -151 75 -18 211 -8 285 20 240 91 418
291 681 765 64 116 119 213 123 217 4 4 113 0 242 -8 294 -19 570 -21 675 -5
44 7 136 26 205 41 143 33 306 57 317 46 23 -22 -148 -207 -697 -757 -500
-501 -660 -653 -897 -855 -154 -132 -280 -250 -294 -276 -9 -16 -7 -17 18 -7
96 36 454 284 618 428 172 151 413 288 523 298 109 10 324 -53 579 -170 399
-183 803 -462 803 -554 0 -19 -6 -34 -17 -39 -10 -5 -111 -9 -225 -9 -113 0
-209 -3 -213 -6 -16 -16 281 -100 402 -114 129 -14 220 39 296 176 81 145 225
544 286 789 61 249 82 406 88 681 8 328 -12 534 -83 888 -113 561 -299 1007
-619 1486 -218 326 -407 549 -753 890 -247 243 -312 318 -312 355 0 21 3 22
45 17 25 -4 71 -20 102 -36z m316 -859 c9 -9 34 -57 57 -106 81 -176 144 -252
274 -327 89 -51 85 -62 -49 -129 -61 -30 -127 -68 -147 -83 -49 -38 -88 -117
-89 -181 -2 -81 -11 -111 -36 -114 -27 -4 -49 27 -70 98 -33 115 -80 177 -201
267 l-74 54 114 117 c138 143 159 180 169 308 8 117 18 134 52 96z m-4759 -80
c3 -5 9 -43 15 -85 13 -105 41 -150 177 -282 63 -61 114 -114 114 -118 0 -3
-33 -22 -73 -40 -82 -38 -135 -91 -164 -165 -10 -25 -31 -73 -48 -106 -47 -96
-82 -87 -129 32 -35 89 -104 166 -212 237 -76 49 -85 58 -82 83 2 20 13 32 43
47 22 12 52 29 68 39 39 26 113 128 159 221 22 44 51 95 65 113 23 30 56 42
67 24z m-643 -1707 c51 -148 79 -204 126 -256 44 -48 64 -59 170 -94 179 -57
177 -107 -8 -205 -161 -86 -226 -183 -278 -413 -16 -70 -31 -131 -35 -134 -11
-12 -24 10 -65 115 -62 155 -127 278 -171 322 -22 22 -72 56 -112 76 -111 55
-140 80 -136 116 3 28 12 36 90 75 146 74 221 172 333 436 21 48 39 86 41 85
2 -2 22 -57 45 -123z m6097 103 c7 -7 12 -28 12 -48 0 -138 146 -339 297 -411
161 -75 154 -115 -39 -216 -117 -61 -207 -145 -232 -218 -9 -28 -19 -96 -22
-155 -6 -117 -19 -170 -40 -170 -23 0 -44 44 -60 126 -40 208 -65 273 -137
351 -46 50 -92 77 -163 94 -149 36 -141 80 31 163 159 76 193 123 244 329 16
65 36 128 45 142 18 27 45 32 64 13z m-2192 -293 c39 -59 -12 -320 -109 -560
-108 -268 -203 -414 -356 -548 -128 -112 -259 -153 -461 -144 -199 8 -284 50
-456 223 -160 161 -234 284 -302 504 -52 165 -112 425 -112 484 l0 29 68 -7
c37 -3 117 -17 177 -31 182 -42 290 -56 495 -62 306 -9 571 19 795 84 207 60
238 63 261 28z m1468 -973 c82 -96 151 -152 188 -152 48 0 62 -42 29 -88 -10
-15 -43 -45 -73 -66 -64 -46 -106 -101 -114 -148 -12 -75 -14 -78 -37 -78 -27
0 -51 24 -99 100 -44 69 -80 102 -142 132 -66 31 -76 49 -50 85 12 15 47 48
78 72 70 53 106 105 113 163 6 56 10 68 22 68 6 0 44 -40 85 -88z m-4836 -54
c44 -35 96 -76 116 -91 21 -17 36 -36 36 -49 0 -12 -27 -59 -60 -104 -62 -85
-99 -155 -100 -186 0 -39 -48 -18 -161 72 -63 50 -133 100 -156 111 -24 12
-43 24 -43 29 0 19 87 135 153 204 94 99 107 100 215 14z"/>
<path d="M3050 3518 c0 -120 85 -280 232 -434 103 -107 192 -176 293 -227 85
-42 115 -52 115 -38 0 6 -82 93 -183 193 -188 187 -276 292 -361 431 -27 44
-59 91 -72 105 l-23 27 -1 -57z"/>
<path d="M5093 3291 c-81 -70 -268 -261 -306 -312 -56 -74 -23 -75 87 -1 140
94 306 286 306 354 0 29 -15 22 -87 -41z"/>
<path d="M2177 2078 c-13 -18 -41 -66 -62 -106 -48 -91 -103 -141 -203 -182
-42 -17 -94 -38 -115 -47 l-39 -17 62 -17 c148 -40 289 -189 371 -392 12 -31
26 -54 29 -50 4 5 13 31 20 58 39 150 197 345 280 345 36 0 68 34 51 54 -7 8
-26 18 -42 21 -37 8 -132 78 -185 137 -65 70 -95 122 -102 174 -9 61 -30 68
-65 22z"/>
<path d="M4104 2054 c-8 -20 -24 -77 -35 -127 -64 -289 -95 -372 -176 -458
-64 -69 -132 -111 -286 -178 -71 -31 -129 -60 -128 -66 0 -5 33 -13 73 -16
252 -23 503 -262 581 -554 9 -33 21 -80 28 -105 l12 -45 39 139 c84 301 199
431 496 560 61 27 112 52 112 56 0 4 -46 19 -102 35 -149 41 -284 112 -346
180 -87 95 -195 348 -208 487 -7 74 -22 128 -35 128 -6 0 -17 -16 -25 -36z"/>
<path d="M6097 2063 c-4 -3 -7 -18 -7 -32 0 -45 -58 -129 -161 -236 -54 -57
-99 -108 -99 -114 0 -6 28 -24 63 -39 110 -50 163 -136 194 -312 8 -47 17 -91
19 -99 3 -8 29 39 59 105 94 203 146 263 295 339 54 28 80 45 70 49 -8 3 -48
17 -89 31 -83 28 -146 62 -178 97 -12 12 -40 57 -63 98 -56 100 -85 132 -103
113z"/>
</g>
</svg>
