<?xml version="1.0" standalone="no"?>
<!DOCTYPE svg PUBLIC "-//W3C//DTD SVG 20010904//EN"
 "http://www.w3.org/TR/2001/REC-SVG-20010904/DTD/svg10.dtd">
<svg version="1.0" xmlns="http://www.w3.org/2000/svg"
 width="200.000000pt" height="200.000000pt" viewBox="0 0 200.000000 200.000000"
 preserveAspectRatio="xMidYMid meet">

<g transform="translate(0.000000,200.000000) scale(0.100000,-0.100000)"
fill="#000000" stroke="none">
<path d="M855 1898 c-38 -18 -106 -41 -150 -53 -80 -21 -80 -22 -110 -76 -27
-48 -30 -63 -30 -139 0 -67 4 -92 19 -117 40 -65 74 -52 58 23 -6 28 -7 57 -2
70 10 27 58 54 94 54 16 0 34 13 54 37 l30 38 -5 -48 c-3 -26 -2 -47 2 -47 4
0 23 9 41 21 19 11 34 18 34 15 0 -3 -18 -29 -40 -58 -40 -52 -58 -93 -47
-105 4 -3 25 2 48 11 53 21 60 15 16 -13 -19 -12 -53 -41 -76 -66 -32 -34 -41
-52 -41 -80 0 -51 32 -68 139 -74 86 -5 86 -5 46 -17 -56 -17 -147 -17 -211 2
-44 12 -67 13 -129 5 -42 -6 -123 -11 -181 -11 -57 0 -104 -4 -104 -8 0 -12
59 -93 84 -115 36 -31 179 -96 235 -107 52 -10 131 -14 131 -6 0 1 -5 17 -11
35 -9 24 -17 31 -38 31 -62 0 -224 60 -208 77 3 3 29 -2 59 -10 161 -47 419
-68 589 -48 52 6 140 25 195 42 141 44 144 44 94 10 -25 -17 -75 -41 -111 -52
-57 -17 -67 -24 -77 -53 -17 -47 -16 -48 31 -41 88 15 221 66 272 104 43 32
145 141 133 141 -1 0 -58 2 -125 5 -111 4 -231 18 -276 31 -26 8 -41 46 -80
200 -20 78 -47 164 -60 190 -37 73 -182 234 -210 234 -6 0 -43 -15 -82 -32z"/>
<path d="M1537 1692 c143 -136 250 -299 298 -452 65 -210 69 -391 11 -560 -59
-170 -72 -183 -163 -161 -74 18 -80 28 -14 23 34 -2 61 0 65 6 17 27 -178 145
-286 172 -40 10 -50 9 -87 -10 -23 -11 -59 -36 -79 -54 -54 -48 -165 -121
-160 -105 3 8 36 40 74 71 89 73 390 375 382 384 -4 3 -37 -2 -75 -11 -53 -13
-90 -16 -168 -11 l-100 6 -45 -81 c-99 -180 -208 -212 -325 -96 -46 46 -69 88
-91 165 -3 10 -17 11 -56 5 -29 -4 -110 -8 -180 -7 -71 0 -128 -2 -128 -6 0
-22 85 -98 188 -168 119 -82 242 -185 242 -204 0 -5 -13 0 -29 12 -17 11 -60
35 -98 53 -60 28 -78 32 -153 32 -71 0 -94 -4 -142 -27 -53 -25 -148 -101
-148 -119 0 -4 30 -6 68 -4 l67 5 -60 -29 c-88 -44 -109 -41 -146 16 -57 91
-82 191 -87 353 -8 265 32 396 194 637 57 85 104 158 104 164 0 20 -19 6 -81
-58 -135 -141 -213 -271 -255 -428 -73 -269 -5 -622 162 -844 111 -148 380
-295 613 -336 307 -54 571 27 806 247 126 118 219 270 265 433 32 114 32 331
1 460 -47 191 -121 326 -256 461 -101 103 -168 154 -199 154 -16 0 1 -21 71
-88z m-773 -876 c14 -24 51 -67 83 -96 42 -39 51 -51 33 -45 -70 22 -150 113
-150 171 0 22 6 17 34 -30z m479 -26 c-7 -25 -78 -90 -99 -90 -10 0 4 20 37
53 61 60 69 65 62 37z m-703 -299 c0 -19 52 -71 71 -71 5 0 9 -4 9 -10 0 -5
-6 -10 -13 -10 -20 0 -57 -43 -66 -76 l-8 -29 -15 36 c-18 41 -61 79 -92 80
-13 0 -5 6 22 16 32 11 48 24 60 49 17 38 32 44 32 15z m460 -10 c0 -34 31
-109 54 -130 13 -13 43 -28 67 -35 l44 -13 -45 -20 c-59 -27 -90 -62 -105
-120 l-13 -48 -11 42 c-20 74 -86 133 -148 133 -23 1 -19 4 26 23 67 27 88 55
103 134 6 34 15 60 20 57 4 -3 8 -13 8 -23z m490 -13 c10 -21 27 -36 50 -43
l35 -12 -33 -17 c-23 -12 -41 -33 -55 -64 l-21 -47 -6 37 c-8 42 -23 64 -51
73 -17 6 -15 10 16 39 19 19 35 41 35 50 0 26 14 18 30 -16z"/>
<path d="M1560 1539 c0 -22 -10 -41 -33 -64 l-34 -34 29 -21 c16 -12 31 -34
35 -51 6 -32 23 -40 23 -10 0 36 13 53 53 71 40 18 40 18 16 31 -30 15 -46 35
-65 77 -18 40 -24 41 -24 1z"/>
<path d="M395 1507 c-11 -23 -30 -46 -42 -52 -30 -13 -29 -17 8 -39 17 -10 35
-31 41 -47 13 -38 24 -37 38 5 6 19 21 38 36 45 l25 11 -35 34 c-24 22 -36 42
-36 60 0 37 -12 32 -35 -17z"/>
<path d="M1715 1133 c-10 -55 -23 -73 -61 -89 -42 -18 -43 -30 -4 -37 35 -8
60 -42 67 -97 7 -50 23 -53 23 -4 0 49 14 70 60 94 48 24 50 34 10 50 -31 13
-70 65 -70 93 0 33 -18 25 -25 -10z"/>
<path d="M246 1125 c-20 -47 -43 -74 -73 -86 -32 -12 -29 -23 12 -42 33 -16
42 -29 73 -107 9 -24 10 -23 17 15 10 54 29 83 71 102 40 20 40 34 -3 45 -37
10 -49 23 -67 74 l-13 39 -17 -40z"/>
<path d="M1150 1083 c-73 -23 -214 -28 -294 -9 -38 9 -71 15 -73 12 -7 -6 26
-135 43 -169 21 -41 71 -95 106 -113 38 -20 107 -17 144 5 18 11 44 35 58 54
52 68 100 225 71 232 -5 2 -30 -4 -55 -12z"/>
<path d="M1540 863 c0 -13 -11 -30 -25 -39 -30 -19 -32 -31 -7 -38 11 -4 25
-18 32 -31 16 -30 30 -32 30 -6 0 10 11 26 25 35 28 18 33 36 11 36 -8 0 -26
15 -40 33 -24 29 -26 30 -26 10z"/>
<path d="M341 828 c-18 -21 -28 -38 -23 -38 6 0 27 -14 47 -31 23 -21 35 -26
35 -16 0 8 10 27 22 42 21 27 21 28 2 41 -10 7 -26 19 -34 27 -13 12 -20 8
-49 -25z"/>
</g>
</svg>
